<?xml version="1.0" encoding="utf-8"?>
<!-- Generator: Adobe Illustrator 27.3.1, SVG Export Plug-In . SVG Version: 6.00 Build 0)  -->
<svg version="1.1" id="Layer_1" xmlns="http://www.w3.org/2000/svg" xmlns:xlink="http://www.w3.org/1999/xlink" x="0px" y="0px"
	 viewBox="0 0 2500 2500" style="enable-background:new 0 0 2500 2500;" xml:space="preserve">
<style type="text/css">
	.st0{fill-rule:evenodd;clip-rule:evenodd;}
	.st1{fill-rule:evenodd;clip-rule:evenodd;fill:#BFBFBF;}
</style>
<g>
	<path class="st0" d="M2431,1380.1c-20.4-0.4-37.3,15.9-37.7,36.3c-0.4,20.4,15.9,37.3,36.3,37.7c0.5,0,0.9,0,1.4,0
		c20.4,0,36.9-16.6,36.9-37c0,0,0-0.1,0-0.1C2467.9,1396.6,2451.4,1380.1,2431,1380.1C2431,1380.1,2431,1380.1,2431,1380.1z
		 M2431,1449.6c-17.9,0-32.5-14.5-32.5-32.5c0-0.1,0-0.1,0-0.2c0-17.9,14.5-32.4,32.5-32.4c0,0,0,0,0.1,0
		c17.9,0,32.4,14.5,32.4,32.4c0,0,0,0,0,0c0.1,17.9-14.4,32.5-32.3,32.6C2431.1,1449.6,2431.1,1449.6,2431,1449.6z"/>
	<path class="st1" d="M2448,1407.4c0-3.5-1.5-7.2-4.6-8.9c-3.1-1.8-6.6-2-10.1-2h-18v41.3h5v-19.1h9.3l11.8,19.1h6l-12.5-19.1
		C2442.3,1418.5,2448,1415.5,2448,1407.4L2448,1407.4z M2428.1,1414.7h-7.8v-14.6h11.8c5.1,0,10.8,0.8,10.8,7.2
		C2442.9,1415.7,2433.9,1414.7,2428.1,1414.7z M2212.2,1207.5l75.6-80.7c4.4-5.9,6.6-10.1,6.6-13.6c0-5.9-5.1-8.3-21.1-8.3h-19.1
		v-51h206.5v51h-27.1c-31.3,0-37.2,4.7-80.9,59.9l-119.6,129.2v78.8c0,20.2,10.2,27.3,39.3,27.3h45.2v49.2h-289.3V1400h45.2
		c29.1,0,39.3-7.1,39.3-27.3v-78.8L1971.9,1138c-23.3-27.3-20.1-33.2-84.9-33.2v-51h261.6v51H2130c-18.9,0-27,3.6-27,10.7
		c0,5.9,5.8,10.7,9.5,15.4l71.3,77.7C2192.2,1217.4,2202.6,1218.5,2212.2,1207.5L2212.2,1207.5z M457.1,1053.8h63.1v142.2h-58.3
		c-5.2-28.4-23-39.5-39.2-54.4c-29.3-26.9-92.7-49.3-146-49.3c-68.8,0-126.9,21.3-126.9,52.7c0,87.1,393.6,17.8,393.6,182.5
		c0,85.9-84.3,133.9-235.7,133.9c-52.4,0-131.7-16.3-178.5-41.1c-14.7-8.5-20.9,8-23.6,28.7H40.8v-147h58.5
		c12.9,37.3,30.7,45,47,59.9c28.4,26.1,95.9,45.1,157.9,44.5c93.4-0.9,125.5-21.3,125.5-51c0-29.6-31.8-36.7-134.1-52.7l-86.9-14.2
		c-98.1-14.8-169.5-36.7-169.5-115c0-81.2,90.3-132.2,233.1-132.2c60.2,0,110.5,8,158.9,35.4
		C444.7,1085.5,457.2,1086.5,457.1,1053.8L457.1,1053.8z M1688.6,1292l1.2-158.1c0-20.7-10.8-27.8-41.6-27.8H1612v-49.2h230.5v49.2
		h-30c-30.9,0-41.6,7.1-41.6,27.8v318.3l-90.2-0.7l-292.1-276.6v200.9c0,20.2,10.8,27.8,41.6,27.8h40.1v48.6h-239.4v-48.6h39.7
		c30.8,0,41.6-7.7,41.6-27.8v-241.8c0-20.7-10.8-27.8-41.6-27.8h-39.7v-49.2h207L1688.6,1292z M916.5,1038.4
		c-183.7,0-298.7,81.2-298.7,211.6c0,128,113.4,208.6,293.1,208.6c190.8,0,301.9-79.4,301.9-215.1
		C1212.8,1121.4,1093,1038.4,916.5,1038.4L916.5,1038.4z M912.3,1407.1c-101.7,0-160.1-58.7-160.1-160c0-99,61-157.6,165.2-157.6
		c100,0,158.4,59.9,158.4,161.8C1075.8,1350.8,1016.5,1407.1,912.3,1407.1L912.3,1407.1z"/>
</g>
</svg>
